<svg width="24" height="24" viewBox="0 0 24 24" fill="none" xmlns="http://www.w3.org/2000/svg">
<path fill-rule="evenodd" clip-rule="evenodd" d="M11.9927 2.75C10.863 2.75 9.80867 3.09078 8.91455 3.68364C8.56933 3.91255 8.10391 3.81826 7.87501 3.47304C7.6461 3.12782 7.7404 2.6624 8.08562 2.4335C9.21421 1.68516 10.5549 1.25 11.9927 1.25C13.4374 1.25 14.7842 1.68943 15.9162 2.44446C16.2608 2.6743 16.3539 3.13997 16.124 3.48457C15.8942 3.82916 15.4285 3.9222 15.0839 3.69236C14.187 3.09411 13.1277 2.75 11.9927 2.75ZM9.99452 4.84652C10.5826 4.49606 11.2654 4.29459 11.9927 4.29459C12.7278 4.29459 13.4175 4.50043 14.0098 4.85788C14.3644 5.07191 14.4784 5.5329 14.2644 5.88753C14.0504 6.24217 13.5894 6.35615 13.2347 6.14212C12.8668 5.92007 12.4437 5.79459 11.9927 5.79459C11.5464 5.79459 11.1276 5.91742 10.7624 6.13504C10.4066 6.3471 9.94628 6.23056 9.73422 5.87474C9.52216 5.51893 9.6387 5.05857 9.99452 4.84652Z" fill="white"/>
<path d="M21.1738 6.61774C18.0789 5.88026 15.6662 6.36812 14.0154 7.06256C13.5235 7.26949 13.1012 7.49386 12.75 7.70763V22.3339C12.8236 22.2729 12.9159 22.1999 13.0267 22.1187C13.3737 21.8647 13.8996 21.5327 14.5971 21.2393C15.9838 20.656 18.0711 20.2145 20.8262 20.871C21.0494 20.9242 21.2847 20.8723 21.4648 20.73C21.6449 20.5878 21.75 20.3709 21.75 20.1414V7.34731C21.75 7.00006 21.5116 6.69822 21.1738 6.61774Z" fill="white"/>
<path d="M11.25 22.3339V7.70764C10.8988 7.49386 10.4765 7.26949 9.98457 7.06256C8.33377 6.36812 5.92114 5.88026 2.82616 6.61774C2.48837 6.69822 2.25 7.00006 2.25 7.34731V20.1414C2.25 20.3709 2.35507 20.5878 2.53518 20.73C2.71528 20.8723 2.9506 20.9242 3.17384 20.871C5.92886 20.2145 8.01623 20.656 9.40293 21.2393C10.1004 21.5327 10.6263 21.8647 10.9733 22.1187C11.0841 22.1999 11.1764 22.2729 11.25 22.3339Z" fill="white"/>
</svg>
