<svg width="40" height="40" viewBox="0 0 40 40" fill="none" xmlns="http://www.w3.org/2000/svg">
<g clip-path="url(#clip0_21434_428119)">
<path d="M37.9998 7.99963L38 32C37.9998 36.418 34.418 39.9999 30 40H10C5.58184 40 2.0002 36.4181 2 32V8C2 3.58172 5.58172 0 10 0H29.9873L37.9998 7.99963Z" fill="#2A2A2A"/>
<path d="M2 32V8C2 3.58172 5.58172 0 10 0H29.9873L37.9998 7.99963L38 32C37.9998 36.418 34.418 39.9999 30 40V39C33.7448 38.9999 36.8035 36.0587 36.9912 32.3604L37 32V8.5H32.9873C31.0544 8.5 29.4875 6.93283 29.4873 5V1H10C6.134 1 3 4.134 3 8V32C3.0002 35.8659 6.13419 39 10 39V40C5.58184 40 2.0002 36.4181 2 32ZM30 39V40H10V39H30ZM30.4873 5C30.4875 6.38054 31.6067 7.5 32.9873 7.5H36.084L30.4873 1.91211V5Z" fill="#616161"/>
<path d="M2 32V8C2 3.58172 5.58172 0 10 0H29.9873L38 8V32C37.9998 36.418 34.418 39.9999 30 40V39.5C34.0125 39.4999 37.2893 36.3484 37.4902 32.3857L37.5 32V8.25H32.9873C31.1925 8.25 29.7375 6.79476 29.7373 5V0.5H10C5.85786 0.5 2.5 3.85786 2.5 8V32C2.5002 36.142 5.85801 39.5 10 39.5V40C5.58184 40 2.0002 36.4181 2 32ZM30 39.5V40H10V39.5H30ZM30.2373 5C30.2375 6.51861 31.4686 7.75 32.9873 7.75H37.042L30.2373 0.956055V5Z" fill="#616161"/>
<path d="M14.9229 11.5771C15.3094 11.5773 15.6222 11.8909 15.6222 12.2773C15.6222 12.6638 15.3094 12.9774 14.9229 12.9775H14.3985C13.2721 12.9776 12.4778 13.7906 12.4776 14.6533L12.4786 19.4062C12.4785 19.8823 12.2152 20.2249 11.9688 20.4365C11.9477 20.4547 11.9233 20.4691 11.9015 20.4863C11.9219 20.5023 11.9441 20.5165 11.964 20.5332C12.1983 20.7307 12.4786 21.0672 12.4786 21.5449L12.4776 25.3467L12.4874 25.5078C12.5788 26.3081 13.3425 27.0224 14.3985 27.0225H14.9229C15.3093 27.0226 15.622 27.3363 15.6222 27.7227C15.6222 28.1091 15.3094 28.4227 14.9229 28.4229H14.3985C12.6308 28.4228 11.0782 27.1084 11.0782 25.3467V21.6201C11.0734 21.6157 11.0682 21.61 11.0616 21.6045C10.9814 21.537 10.8437 21.4586 10.6602 21.3828C10.4842 21.3101 10.3013 21.2541 10.1593 21.2158C10.0894 21.197 10.0314 21.1828 9.99228 21.1738C9.97309 21.1694 9.95843 21.166 9.94931 21.1641C9.94482 21.1631 9.93954 21.1621 9.93954 21.1621L9.81942 21.127C9.5519 21.022 9.37043 20.7597 9.37509 20.4639C9.38064 20.1259 9.6275 19.8405 9.96103 19.7852C9.96103 19.7852 9.96558 19.784 9.96981 19.7832C9.97856 19.7816 9.99295 19.7791 10.0118 19.7754C10.0502 19.7678 10.1079 19.755 10.1768 19.7383C10.3171 19.7042 10.4966 19.6534 10.669 19.585C10.8491 19.5135 10.9814 19.4387 11.0567 19.374C11.0661 19.366 11.0726 19.3581 11.0782 19.3525V14.6533C11.0784 12.8917 12.6309 11.5772 14.3985 11.5771H14.9229Z" fill="#A1A1A1"/>
<path d="M25.6007 11.5771C27.3684 11.5771 28.9208 12.8916 28.921 14.6533V19.3291C28.9261 19.3339 28.9314 19.3406 28.9386 19.3467C29.0188 19.4142 29.1563 19.4925 29.3399 19.5684C29.5161 19.6411 29.6988 19.697 29.8409 19.7354C29.9104 19.7541 29.9679 19.7684 30.0069 19.7773L30.0597 19.7891L30.1798 19.8232C30.4477 19.928 30.6288 20.1902 30.6241 20.4863C30.6195 20.7824 30.4303 21.0384 30.1593 21.1348L30.0392 21.166L30.0304 21.168C30.0215 21.1696 30.0064 21.172 29.9874 21.1758C29.949 21.1834 29.8921 21.1952 29.8233 21.2119C29.6831 21.2459 29.5037 21.2968 29.3311 21.3652C29.151 21.4367 29.0188 21.5115 28.9434 21.5762C28.9336 21.5846 28.9267 21.5929 28.921 21.5986V25.3467C28.921 27.1085 27.3685 28.4229 25.6007 28.4229H25.0763C24.6899 28.4225 24.377 28.1091 24.377 27.7227C24.3772 27.3364 24.69 27.0228 25.0763 27.0225H25.6007C26.7273 27.0225 27.5216 26.2096 27.5216 25.3467V21.5449C27.5216 21.0688 27.785 20.7263 28.0313 20.5146C28.0526 20.4964 28.0758 20.4802 28.0977 20.4629C28.0776 20.4472 28.0557 20.4334 28.0362 20.417C27.8019 20.2195 27.5216 19.8838 27.5216 19.4062V14.6533C27.5214 13.7905 26.7272 12.9775 25.6007 12.9775H25.0763C24.6899 12.9772 24.377 12.6637 24.377 12.2773C24.377 11.8909 24.6899 11.5775 25.0763 11.5771H25.6007Z" fill="#A1A1A1"/>
<path d="M20.0001 19.7549C20.7767 19.7549 21.4063 20.3845 21.4063 21.1611V22.3809C21.4063 23.1898 21.3132 23.8269 21.1407 24.291C20.9683 24.7548 20.6636 25.0998 20.2393 25.3252C19.9565 25.4623 19.629 25.5608 19.254 25.6133C18.8921 25.6639 18.594 25.3605 18.5938 24.9951C18.5938 24.6555 18.8621 24.3901 19.172 24.251C19.7044 24.0116 19.9737 23.5031 19.9737 22.7256V22.5801C19.2118 22.5801 18.594 21.9621 18.5938 21.2002V21.1611C18.5938 20.3845 19.2234 19.7549 20.0001 19.7549Z" fill="#A1A1A1"/>
<path d="M20.0001 14.3438C20.7767 14.3438 21.4063 14.9793 21.4063 15.7559C21.4063 16.5325 20.7767 17.1689 20.0001 17.1689C19.2234 17.1689 18.5938 16.5325 18.5938 15.7559C18.5939 14.9793 19.2235 14.3438 20.0001 14.3438Z" fill="#A1A1A1"/>
</g>
<defs>
<clipPath id="clip0_21434_428119">
<rect width="40" height="40" fill="white"/>
</clipPath>
</defs>
</svg>
