<svg width="20" height="20" viewBox="0 0 20 20" fill="none" xmlns="http://www.w3.org/2000/svg">
<g clip-path="url(#clip0_2802_39893)">
<path fill-rule="evenodd" clip-rule="evenodd" d="M14.1657 2.58301C15.9606 2.58301 17.416 4.03841 17.416 5.83333V14.1667C17.416 15.9616 15.9606 17.417 14.1657 17.417H5.83236C4.03743 17.417 2.58203 15.9616 2.58203 14.1667V5.83333C2.58203 4.03841 4.03743 2.58301 5.83236 2.58301H14.1657ZM10.6655 12.8337V15.9163H14.1657C15.1322 15.9163 15.9154 15.1332 15.9154 14.1667V12.8337H10.6655ZM4.08268 14.1667C4.08268 15.1332 4.86586 15.9163 5.83236 15.9163H9.16569V12.8337H4.08268V14.1667ZM10.6655 8.66699V11.3338H15.9154V8.66699H10.6655ZM4.08268 11.3338H9.16569V8.66699H4.08268V11.3338ZM5.83236 4.08366C4.86586 4.08366 4.08268 4.86684 4.08268 5.83333V7.16715H15.9154V5.83333C15.9154 4.86684 15.1322 4.08366 14.1657 4.08366H5.83236Z" fill="white" fill-opacity="0.84"/>
</g>
<defs>
<clipPath id="clip0_2802_39893">
<rect width="20" height="20" fill="white"/>
</clipPath>
</defs>
</svg>
