<svg width="20" height="20" viewBox="0 0 20 20" fill="none" xmlns="http://www.w3.org/2000/svg">
<path d="M15.0833 4.91708H4.91732V10.8334C4.91732 11.7999 5.70049 12.5839 6.66699 12.5839H8.73649C8.7411 12.5838 8.74571 12.5831 8.75033 12.5831H11.2503C11.2549 12.5831 11.2596 12.5838 11.2642 12.5839H13.3337C14.3002 12.5839 15.0833 11.7999 15.0833 10.8334V4.91708ZM8.63639 6.13697C8.92929 5.84407 9.4047 5.84407 9.69759 6.13697L11.7809 8.2203C12.0735 8.51318 12.0736 8.98788 11.7809 9.28069L9.69759 11.364C9.4047 11.6569 8.92929 11.6569 8.63639 11.364C8.34372 11.0712 8.34383 10.5965 8.63639 10.3036L10.1891 8.75009L8.63639 7.19735C8.34372 6.90454 8.34383 6.42984 8.63639 6.13697ZM16.584 10.8334C16.584 12.6283 15.1286 14.0837 13.3337 14.0837H12.904L14.7318 16.1728C15.0043 16.4844 14.9724 16.958 14.661 17.2307C14.3492 17.5035 13.875 17.4725 13.6022 17.1607L10.9102 14.0837H9.09049L6.39844 17.1607C6.12568 17.4725 5.65141 17.5035 5.33968 17.2307C5.02824 16.958 4.99634 16.4844 5.26888 16.1728L7.09668 14.0837H6.66699C4.87207 14.0837 3.41667 12.6283 3.41667 10.8334V4.91708H2.50033C2.08611 4.91707 1.75 4.58096 1.75 4.16675C1.75 3.75254 2.08612 3.41643 2.50033 3.41643L17.5003 3.41724C17.9145 3.41725 18.2506 3.75261 18.2507 4.16675C18.2506 4.58096 17.9145 4.91708 17.5003 4.91708H16.584V10.8334Z" fill="white" fill-opacity="0.84"/>
</svg>
