<svg width="20" height="20" viewBox="0 0 20 20" fill="none" xmlns="http://www.w3.org/2000/svg">
<path fill-rule="evenodd" clip-rule="evenodd" d="M12.4904 2.39806C13.1109 1.78209 14.1139 1.78579 14.73 2.40619L15.5755 3.25743C16.1917 3.87791 16.1878 4.88084 15.5674 5.49701L14.8528 6.20665C15.0754 6.77195 14.9591 7.43772 14.507 7.89692C16.4259 9.54469 16.9694 11.887 16.1834 13.9622C15.7775 15.0335 15.0328 15.998 13.9927 16.7486H15.8319C16.2461 16.7486 16.5822 17.0848 16.5822 17.499C16.5821 17.9131 16.246 18.2493 15.8319 18.2493H4.16519C3.75118 18.2491 3.41493 17.913 3.41486 17.499C3.41486 17.0849 3.75113 16.7488 4.16519 16.7486H9.94643C12.615 16.3522 14.2089 14.9418 14.7812 13.4316C15.3459 11.941 14.9743 10.2186 13.4393 8.95893L9.81297 12.5608C9.19255 13.1768 8.19034 13.1737 7.5742 12.5535L5.38182 10.3448C4.76579 9.72441 4.76887 8.72222 5.38914 8.10606L10.0718 3.456C10.5331 2.99804 11.2055 2.88265 11.7734 3.1085L12.4904 2.39806ZM11.2436 4.51964C11.2112 4.48914 11.1609 4.48896 11.1289 4.52045L6.44627 9.17052C6.41379 9.20296 6.4139 9.25592 6.44627 9.28852L8.63866 11.4964C8.67094 11.5286 8.72322 11.529 8.75584 11.4972L13.4385 6.84711C13.4698 6.81599 13.4703 6.76681 13.4417 6.73399L11.2436 4.51964ZM13.6647 3.46332C13.6323 3.4308 13.5802 3.43034 13.5475 3.46251L12.9241 4.081L13.8869 5.05105L14.5102 4.43256C14.5428 4.40026 14.5431 4.34805 14.5111 4.31537L13.6647 3.46332Z" fill="white" fill-opacity="0.84"/>
<path d="M3.18211 11.0447C3.47601 10.7528 3.95143 10.7541 4.24331 11.048L6.937 13.7604C7.2287 14.0543 7.22678 14.5297 6.93293 14.8216C6.639 15.1132 6.16354 15.1113 5.87173 14.8175L3.17886 12.1051C2.88707 11.8113 2.88845 11.3366 3.18211 11.0447Z" fill="white" fill-opacity="0.84"/>
</svg>
