<svg width="20" height="20" viewBox="0 0 20 20" fill="none" xmlns="http://www.w3.org/2000/svg">
<g clip-path="url(#clip0_2802_39899)">
<path d="M12.8993 12.9142C13.3134 12.9143 13.6496 13.2504 13.6496 13.6646C13.6496 14.0788 13.3134 14.4149 12.8993 14.4149H7.1001C6.68588 14.4149 6.34977 14.0788 6.34977 13.6646C6.34977 13.2503 6.68588 12.9142 7.1001 12.9142H12.8993Z" fill="white" fill-opacity="0.84"/>
<path d="M10.2796 9.24968C10.6937 9.2498 11.0291 9.58586 11.0291 10C11.0291 10.4141 10.6937 10.7502 10.2796 10.7503H7.1001C6.68588 10.7503 6.34977 10.4142 6.34977 10C6.34977 9.58579 6.68588 9.24968 7.1001 9.24968H10.2796Z" fill="white" fill-opacity="0.84"/>
<path fill-rule="evenodd" clip-rule="evenodd" d="M10.9762 1.74968C11.617 1.74975 12.2321 2.00463 12.6852 2.45769L15.8753 5.64779C16.3285 6.10095 16.5833 6.71593 16.5833 7.35678V15C16.5833 16.7949 15.1279 18.2503 13.333 18.2503H6.66634C4.87156 18.2502 3.41602 16.7948 3.41602 15V5.00001C3.41602 3.20518 4.87156 1.74984 6.66634 1.74968H10.9762ZM6.66634 3.25033C5.69998 3.2505 4.91667 4.03361 4.91667 5.00001V15C4.91667 15.9664 5.69998 16.7495 6.66634 16.7497H13.333C14.2995 16.7497 15.0827 15.9665 15.0827 15V8.25033H12.4997C11.1651 8.25017 10.0827 7.16792 10.0827 5.83334V3.25033H6.66634ZM11.5833 5.83334C11.5833 6.3395 11.9936 6.74951 12.4997 6.74968H14.8507C14.8387 6.73611 14.827 6.72189 14.8141 6.70899L11.624 3.51889C11.6109 3.50581 11.5971 3.49365 11.5833 3.48145V5.83334Z" fill="white" fill-opacity="0.84"/>
</g>
<defs>
<clipPath id="clip0_2802_39899">
<rect width="20" height="20" fill="white"/>
</clipPath>
</defs>
</svg>
