<svg width="20" height="20" viewBox="0 0 20 20" fill="none" xmlns="http://www.w3.org/2000/svg">
<path d="M6.27962 4.8641C6.65727 4.90233 6.9525 5.22202 6.95264 5.61035C6.95264 5.99878 6.65733 6.31834 6.27962 6.35661L6.20312 6.36068H4.70573C4.29228 6.36059 3.95703 6.02451 3.95703 5.61035C3.95717 5.19631 4.29237 4.86012 4.70573 4.86003H6.20312L6.27962 4.8641Z" fill="white" fill-opacity="0.84"/>
<path fill-rule="evenodd" clip-rule="evenodd" d="M15.05 2.71973C16.8447 2.72 18.2995 4.1753 18.2995 5.97005V14.0299C18.2994 15.8246 16.8446 17.28 15.05 17.2803H4.9515C3.15662 17.2803 1.70125 15.8248 1.70117 14.0299V5.97005C1.70117 4.17513 3.15657 2.71973 4.9515 2.71973H15.05ZM3.20182 14.0299C3.20191 14.9964 3.98505 15.7804 4.9515 15.7804H15.05C16.0162 15.7802 16.7996 14.9962 16.7996 14.0299V8.4611H3.20182V14.0299ZM4.9515 4.22038C3.985 4.22038 3.20182 5.00355 3.20182 5.97005V6.96045H16.7996V5.97005C16.7996 5.00372 16.0162 4.22065 15.05 4.22038H4.9515Z" fill="white" fill-opacity="0.84"/>
</svg>
